<mxfile host="app.diagrams.net" modified="2023-10-25T12:25:32.328Z" agent="Mozilla/5.0 (Macintosh; Intel Mac OS X 10_15_7) AppleWebKit/605.1.15 (KHTML, like Gecko) Version/16.6 Safari/605.1.15" etag="xlhaD-C8pPS9EcrjYkzn" version="22.0.7" type="device" pages="2">
  <diagram name="VF" id="ARtruJN3v9mJWuOKjG9B">
    <mxGraphModel dx="2175" dy="1154" grid="1" gridSize="10" guides="1" tooltips="1" connect="1" arrows="1" fold="1" page="1" pageScale="1" pageWidth="827" pageHeight="1169" math="0" shadow="0">
      <root>
        <mxCell id="0" />
        <mxCell id="1" parent="0" />
        <mxCell id="rVOSxyO94gXYG3ZxGjOt-1" value="" style="rounded=0;whiteSpace=wrap;html=1;dashed=1;align=left;" vertex="1" parent="1">
          <mxGeometry x="90" y="210" width="340" height="300" as="geometry" />
        </mxCell>
        <mxCell id="rVOSxyO94gXYG3ZxGjOt-2" value="match all eth pkts / jump to &lt;b&gt;vnet&lt;/b&gt; group" style="rounded=1;whiteSpace=wrap;html=1;" vertex="1" parent="1">
          <mxGeometry x="110" y="240" width="290" height="40" as="geometry" />
        </mxCell>
        <mxCell id="rVOSxyO94gXYG3ZxGjOt-5" value="match flow 1 / encap and/or &amp;nbsp;send to another port" style="rounded=1;whiteSpace=wrap;html=1;" vertex="1" parent="1">
          <mxGeometry x="115" y="300" width="290" height="40" as="geometry" />
        </mxCell>
        <mxCell id="rVOSxyO94gXYG3ZxGjOt-6" value="match flow 2 / encap and/or &amp;nbsp;send to another port" style="rounded=1;whiteSpace=wrap;html=1;" vertex="1" parent="1">
          <mxGeometry x="115" y="370" width="290" height="40" as="geometry" />
        </mxCell>
        <mxCell id="rVOSxyO94gXYG3ZxGjOt-7" value="&lt;b&gt;Group: default&lt;/b&gt;" style="text;html=1;strokeColor=none;fillColor=none;align=center;verticalAlign=middle;whiteSpace=wrap;rounded=0;" vertex="1" parent="1">
          <mxGeometry x="90" y="210" width="110" height="30" as="geometry" />
        </mxCell>
        <mxCell id="rVOSxyO94gXYG3ZxGjOt-9" value="" style="group" vertex="1" connectable="0" parent="1">
          <mxGeometry x="970" y="200" width="340" height="300" as="geometry" />
        </mxCell>
        <mxCell id="rVOSxyO94gXYG3ZxGjOt-13" value="" style="group" vertex="1" connectable="0" parent="rVOSxyO94gXYG3ZxGjOt-9">
          <mxGeometry y="10" width="340" height="300" as="geometry" />
        </mxCell>
        <mxCell id="rVOSxyO94gXYG3ZxGjOt-3" value="" style="rounded=0;whiteSpace=wrap;html=1;dashed=1;" vertex="1" parent="rVOSxyO94gXYG3ZxGjOt-13">
          <mxGeometry width="340" height="300" as="geometry" />
        </mxCell>
        <mxCell id="rVOSxyO94gXYG3ZxGjOt-8" value="&lt;b&gt;Group: vnet&lt;/b&gt;" style="text;html=1;strokeColor=none;fillColor=none;align=center;verticalAlign=middle;whiteSpace=wrap;rounded=0;" vertex="1" parent="rVOSxyO94gXYG3ZxGjOt-13">
          <mxGeometry width="110" height="30" as="geometry" />
        </mxCell>
        <mxCell id="rVOSxyO94gXYG3ZxGjOt-11" value="" style="rounded=0;whiteSpace=wrap;html=1;dashed=1;" vertex="1" parent="1">
          <mxGeometry x="520" y="210" width="340" height="300" as="geometry" />
        </mxCell>
        <mxCell id="rVOSxyO94gXYG3ZxGjOt-12" value="&lt;b&gt;Group: capture&lt;/b&gt;" style="text;html=1;strokeColor=none;fillColor=none;align=center;verticalAlign=middle;whiteSpace=wrap;rounded=0;" vertex="1" parent="1">
          <mxGeometry x="520" y="210" width="110" height="30" as="geometry" />
        </mxCell>
        <mxCell id="rVOSxyO94gXYG3ZxGjOt-14" value="" style="rounded=0;whiteSpace=wrap;html=1;dashed=1;align=left;" vertex="1" parent="1">
          <mxGeometry x="90" y="640" width="340" height="300" as="geometry" />
        </mxCell>
        <mxCell id="rVOSxyO94gXYG3ZxGjOt-15" value="match all eth pkts / jump to &lt;b&gt;capture&lt;/b&gt; group" style="rounded=1;whiteSpace=wrap;html=1;" vertex="1" parent="1">
          <mxGeometry x="110" y="670" width="290" height="40" as="geometry" />
        </mxCell>
        <mxCell id="rVOSxyO94gXYG3ZxGjOt-16" value="match flow 1 / encap and/or &amp;nbsp;send to another port" style="rounded=1;whiteSpace=wrap;html=1;" vertex="1" parent="1">
          <mxGeometry x="115" y="730" width="290" height="40" as="geometry" />
        </mxCell>
        <mxCell id="rVOSxyO94gXYG3ZxGjOt-17" value="match flow 2 / encap and/or &amp;nbsp;send to another port" style="rounded=1;whiteSpace=wrap;html=1;" vertex="1" parent="1">
          <mxGeometry x="115" y="800" width="290" height="40" as="geometry" />
        </mxCell>
        <mxCell id="rVOSxyO94gXYG3ZxGjOt-18" value="&lt;b&gt;Group: default&lt;/b&gt;" style="text;html=1;strokeColor=none;fillColor=none;align=center;verticalAlign=middle;whiteSpace=wrap;rounded=0;" vertex="1" parent="1">
          <mxGeometry x="90" y="640" width="110" height="30" as="geometry" />
        </mxCell>
        <mxCell id="rVOSxyO94gXYG3ZxGjOt-19" value="" style="group" vertex="1" connectable="0" parent="1">
          <mxGeometry x="970" y="630" width="340" height="300" as="geometry" />
        </mxCell>
        <mxCell id="rVOSxyO94gXYG3ZxGjOt-20" value="" style="group" vertex="1" connectable="0" parent="rVOSxyO94gXYG3ZxGjOt-19">
          <mxGeometry y="10" width="340" height="300" as="geometry" />
        </mxCell>
        <mxCell id="rVOSxyO94gXYG3ZxGjOt-21" value="" style="rounded=0;whiteSpace=wrap;html=1;dashed=1;" vertex="1" parent="rVOSxyO94gXYG3ZxGjOt-20">
          <mxGeometry width="340" height="300" as="geometry" />
        </mxCell>
        <mxCell id="rVOSxyO94gXYG3ZxGjOt-22" value="&lt;b&gt;Group: vnet&lt;/b&gt;" style="text;html=1;strokeColor=none;fillColor=none;align=center;verticalAlign=middle;whiteSpace=wrap;rounded=0;" vertex="1" parent="rVOSxyO94gXYG3ZxGjOt-20">
          <mxGeometry width="110" height="30" as="geometry" />
        </mxCell>
        <mxCell id="rVOSxyO94gXYG3ZxGjOt-26" value="match flow 3 / encap and/or &amp;nbsp;send to another port" style="rounded=1;whiteSpace=wrap;html=1;" vertex="1" parent="rVOSxyO94gXYG3ZxGjOt-20">
          <mxGeometry x="20" y="40" width="290" height="40" as="geometry" />
        </mxCell>
        <mxCell id="2STRxe-ypLlNUbanZhkQ-8" value="" style="sketch=0;pointerEvents=1;shadow=0;dashed=0;html=1;strokeColor=none;fillColor=#505050;labelPosition=center;verticalLabelPosition=bottom;verticalAlign=top;outlineConnect=0;align=center;shape=mxgraph.office.concepts.clock;" vertex="1" parent="rVOSxyO94gXYG3ZxGjOt-20">
          <mxGeometry x="-5" y="47.5" width="25" height="25" as="geometry" />
        </mxCell>
        <mxCell id="rVOSxyO94gXYG3ZxGjOt-23" value="" style="rounded=0;whiteSpace=wrap;html=1;dashed=1;" vertex="1" parent="1">
          <mxGeometry x="520" y="640" width="340" height="300" as="geometry" />
        </mxCell>
        <mxCell id="rVOSxyO94gXYG3ZxGjOt-24" value="&lt;b&gt;Group: capture&lt;/b&gt;" style="text;html=1;strokeColor=none;fillColor=none;align=center;verticalAlign=middle;whiteSpace=wrap;rounded=0;" vertex="1" parent="1">
          <mxGeometry x="520" y="640" width="110" height="30" as="geometry" />
        </mxCell>
        <mxCell id="rVOSxyO94gXYG3ZxGjOt-25" value="match all eth pkts / duplicate pkts / encap duplicated pkts and send out via port 0 / jump to &lt;b&gt;vnet&lt;/b&gt; group" style="rounded=1;whiteSpace=wrap;html=1;" vertex="1" parent="1">
          <mxGeometry x="545" y="680" width="290" height="40" as="geometry" />
        </mxCell>
        <mxCell id="rVOSxyO94gXYG3ZxGjOt-27" value="" style="rounded=0;whiteSpace=wrap;html=1;dashed=1;align=left;" vertex="1" parent="1">
          <mxGeometry x="90" y="1090" width="340" height="300" as="geometry" />
        </mxCell>
        <mxCell id="rVOSxyO94gXYG3ZxGjOt-28" value="match all eth pkts / jump to &lt;b&gt;vnet&lt;/b&gt; group" style="rounded=1;whiteSpace=wrap;html=1;" vertex="1" parent="1">
          <mxGeometry x="110" y="1120" width="290" height="40" as="geometry" />
        </mxCell>
        <mxCell id="rVOSxyO94gXYG3ZxGjOt-29" value="match flow 1 / encap and/or &amp;nbsp;send to another port" style="rounded=1;whiteSpace=wrap;html=1;" vertex="1" parent="1">
          <mxGeometry x="115" y="1180" width="290" height="40" as="geometry" />
        </mxCell>
        <mxCell id="rVOSxyO94gXYG3ZxGjOt-30" value="match flow 2 / encap and/or &amp;nbsp;send to another port" style="rounded=1;whiteSpace=wrap;html=1;" vertex="1" parent="1">
          <mxGeometry x="115" y="1250" width="290" height="40" as="geometry" />
        </mxCell>
        <mxCell id="rVOSxyO94gXYG3ZxGjOt-31" value="&lt;b&gt;Group: default&lt;/b&gt;" style="text;html=1;strokeColor=none;fillColor=none;align=center;verticalAlign=middle;whiteSpace=wrap;rounded=0;" vertex="1" parent="1">
          <mxGeometry x="90" y="1090" width="110" height="30" as="geometry" />
        </mxCell>
        <mxCell id="rVOSxyO94gXYG3ZxGjOt-32" value="" style="group" vertex="1" connectable="0" parent="1">
          <mxGeometry x="970" y="1080" width="340" height="300" as="geometry" />
        </mxCell>
        <mxCell id="rVOSxyO94gXYG3ZxGjOt-33" value="" style="group" vertex="1" connectable="0" parent="rVOSxyO94gXYG3ZxGjOt-32">
          <mxGeometry y="10" width="340" height="300" as="geometry" />
        </mxCell>
        <mxCell id="rVOSxyO94gXYG3ZxGjOt-34" value="" style="rounded=0;whiteSpace=wrap;html=1;dashed=1;" vertex="1" parent="rVOSxyO94gXYG3ZxGjOt-33">
          <mxGeometry width="340" height="300" as="geometry" />
        </mxCell>
        <mxCell id="rVOSxyO94gXYG3ZxGjOt-35" value="&lt;b&gt;Group: vnet&lt;/b&gt;" style="text;html=1;strokeColor=none;fillColor=none;align=center;verticalAlign=middle;whiteSpace=wrap;rounded=0;" vertex="1" parent="rVOSxyO94gXYG3ZxGjOt-33">
          <mxGeometry width="110" height="30" as="geometry" />
        </mxCell>
        <mxCell id="rVOSxyO94gXYG3ZxGjOt-36" value="match flow 3 / encap and/or &amp;nbsp;send to another port" style="rounded=1;whiteSpace=wrap;html=1;" vertex="1" parent="rVOSxyO94gXYG3ZxGjOt-33">
          <mxGeometry x="20" y="40" width="290" height="40" as="geometry" />
        </mxCell>
        <mxCell id="2STRxe-ypLlNUbanZhkQ-7" value="" style="sketch=0;pointerEvents=1;shadow=0;dashed=0;html=1;strokeColor=none;fillColor=#505050;labelPosition=center;verticalLabelPosition=bottom;verticalAlign=top;outlineConnect=0;align=center;shape=mxgraph.office.concepts.clock;" vertex="1" parent="rVOSxyO94gXYG3ZxGjOt-33">
          <mxGeometry x="-5" y="47.5" width="25" height="25" as="geometry" />
        </mxCell>
        <mxCell id="rVOSxyO94gXYG3ZxGjOt-37" value="" style="rounded=0;whiteSpace=wrap;html=1;dashed=1;" vertex="1" parent="1">
          <mxGeometry x="520" y="1090" width="340" height="300" as="geometry" />
        </mxCell>
        <mxCell id="rVOSxyO94gXYG3ZxGjOt-38" value="&lt;b&gt;Group: capture&lt;/b&gt;" style="text;html=1;strokeColor=none;fillColor=none;align=center;verticalAlign=middle;whiteSpace=wrap;rounded=0;" vertex="1" parent="1">
          <mxGeometry x="520" y="1090" width="110" height="30" as="geometry" />
        </mxCell>
        <mxCell id="rVOSxyO94gXYG3ZxGjOt-40" value="&lt;b&gt;VF RX capture&lt;/b&gt;" style="text;html=1;strokeColor=none;fillColor=none;align=center;verticalAlign=middle;whiteSpace=wrap;rounded=0;" vertex="1" parent="1">
          <mxGeometry x="70" y="90" width="110" height="30" as="geometry" />
        </mxCell>
        <mxCell id="rVOSxyO94gXYG3ZxGjOt-41" value="&lt;b&gt;VF: right after init, capturing for this VF is not started , 2 flows arrived&lt;/b&gt;" style="text;html=1;strokeColor=none;fillColor=none;align=left;verticalAlign=middle;whiteSpace=wrap;rounded=0;" vertex="1" parent="1">
          <mxGeometry x="80" y="150" width="310" height="30" as="geometry" />
        </mxCell>
        <mxCell id="rVOSxyO94gXYG3ZxGjOt-42" value="&lt;b&gt;VF: capturing for this VF is started, 3rd flow arrived&amp;nbsp;&lt;/b&gt;" style="text;html=1;strokeColor=none;fillColor=none;align=left;verticalAlign=middle;whiteSpace=wrap;rounded=0;" vertex="1" parent="1">
          <mxGeometry x="90" y="590" width="310" height="30" as="geometry" />
        </mxCell>
        <mxCell id="rVOSxyO94gXYG3ZxGjOt-43" value="&lt;b&gt;VF: capturing for this VF is stopped&amp;nbsp;&lt;/b&gt;" style="text;html=1;strokeColor=none;fillColor=none;align=left;verticalAlign=middle;whiteSpace=wrap;rounded=0;" vertex="1" parent="1">
          <mxGeometry x="90" y="1040" width="310" height="30" as="geometry" />
        </mxCell>
        <mxCell id="2STRxe-ypLlNUbanZhkQ-1" value="" style="sketch=0;pointerEvents=1;shadow=0;dashed=0;html=1;strokeColor=none;fillColor=#505050;labelPosition=center;verticalLabelPosition=bottom;verticalAlign=top;outlineConnect=0;align=center;shape=mxgraph.office.concepts.clock;" vertex="1" parent="1">
          <mxGeometry x="90" y="307.5" width="25" height="25" as="geometry" />
        </mxCell>
        <mxCell id="2STRxe-ypLlNUbanZhkQ-2" value="" style="sketch=0;pointerEvents=1;shadow=0;dashed=0;html=1;strokeColor=none;fillColor=#505050;labelPosition=center;verticalLabelPosition=bottom;verticalAlign=top;outlineConnect=0;align=center;shape=mxgraph.office.concepts.clock;" vertex="1" parent="1">
          <mxGeometry x="90" y="377.5" width="25" height="25" as="geometry" />
        </mxCell>
        <mxCell id="2STRxe-ypLlNUbanZhkQ-3" value="" style="sketch=0;pointerEvents=1;shadow=0;dashed=0;html=1;strokeColor=none;fillColor=#505050;labelPosition=center;verticalLabelPosition=bottom;verticalAlign=top;outlineConnect=0;align=center;shape=mxgraph.office.concepts.clock;" vertex="1" parent="1">
          <mxGeometry x="90" y="737.5" width="25" height="25" as="geometry" />
        </mxCell>
        <mxCell id="2STRxe-ypLlNUbanZhkQ-4" value="" style="sketch=0;pointerEvents=1;shadow=0;dashed=0;html=1;strokeColor=none;fillColor=#505050;labelPosition=center;verticalLabelPosition=bottom;verticalAlign=top;outlineConnect=0;align=center;shape=mxgraph.office.concepts.clock;" vertex="1" parent="1">
          <mxGeometry x="90" y="807.5" width="25" height="25" as="geometry" />
        </mxCell>
        <mxCell id="2STRxe-ypLlNUbanZhkQ-5" value="" style="sketch=0;pointerEvents=1;shadow=0;dashed=0;html=1;strokeColor=none;fillColor=#505050;labelPosition=center;verticalLabelPosition=bottom;verticalAlign=top;outlineConnect=0;align=center;shape=mxgraph.office.concepts.clock;" vertex="1" parent="1">
          <mxGeometry x="90" y="1187.5" width="25" height="25" as="geometry" />
        </mxCell>
        <mxCell id="2STRxe-ypLlNUbanZhkQ-6" value="" style="sketch=0;pointerEvents=1;shadow=0;dashed=0;html=1;strokeColor=none;fillColor=#505050;labelPosition=center;verticalLabelPosition=bottom;verticalAlign=top;outlineConnect=0;align=center;shape=mxgraph.office.concepts.clock;" vertex="1" parent="1">
          <mxGeometry x="90" y="1257.5" width="25" height="25" as="geometry" />
        </mxCell>
      </root>
    </mxGraphModel>
  </diagram>
  <diagram id="TRRYvAhUBRoStiPVL2QW" name="PF">
    <mxGraphModel dx="2175" dy="1154" grid="1" gridSize="10" guides="1" tooltips="1" connect="1" arrows="1" fold="1" page="1" pageScale="1" pageWidth="827" pageHeight="1169" math="0" shadow="0">
      <root>
        <mxCell id="0" />
        <mxCell id="1" parent="0" />
        <mxCell id="bPYk_yVjpqJ2ycv9r8Q3-1" value="" style="rounded=0;whiteSpace=wrap;html=1;dashed=1;align=left;" vertex="1" parent="1">
          <mxGeometry x="90" y="210" width="340" height="300" as="geometry" />
        </mxCell>
        <mxCell id="bPYk_yVjpqJ2ycv9r8Q3-2" value="match IPinIP pkts / put to queue 0" style="rounded=1;whiteSpace=wrap;html=1;" vertex="1" parent="1">
          <mxGeometry x="110" y="240" width="290" height="40" as="geometry" />
        </mxCell>
        <mxCell id="bPYk_yVjpqJ2ycv9r8Q3-3" value="match flow 1 / decap and &amp;nbsp;send to another port" style="rounded=1;whiteSpace=wrap;html=1;" vertex="1" parent="1">
          <mxGeometry x="115" y="300" width="290" height="40" as="geometry" />
        </mxCell>
        <mxCell id="bPYk_yVjpqJ2ycv9r8Q3-4" value="match flow 2 / decap and &amp;nbsp;send to another port" style="rounded=1;whiteSpace=wrap;html=1;" vertex="1" parent="1">
          <mxGeometry x="115" y="370" width="290" height="40" as="geometry" />
        </mxCell>
        <mxCell id="bPYk_yVjpqJ2ycv9r8Q3-5" value="&lt;b&gt;Group: default&lt;/b&gt;" style="text;html=1;strokeColor=none;fillColor=none;align=center;verticalAlign=middle;whiteSpace=wrap;rounded=0;" vertex="1" parent="1">
          <mxGeometry x="90" y="210" width="110" height="30" as="geometry" />
        </mxCell>
        <mxCell id="bPYk_yVjpqJ2ycv9r8Q3-6" value="" style="group" vertex="1" connectable="0" parent="1">
          <mxGeometry x="970" y="200" width="340" height="300" as="geometry" />
        </mxCell>
        <mxCell id="bPYk_yVjpqJ2ycv9r8Q3-7" value="" style="group" vertex="1" connectable="0" parent="bPYk_yVjpqJ2ycv9r8Q3-6">
          <mxGeometry y="10" width="340" height="300" as="geometry" />
        </mxCell>
        <mxCell id="bPYk_yVjpqJ2ycv9r8Q3-8" value="" style="rounded=0;whiteSpace=wrap;html=1;dashed=1;" vertex="1" parent="bPYk_yVjpqJ2ycv9r8Q3-7">
          <mxGeometry width="340" height="300" as="geometry" />
        </mxCell>
        <mxCell id="bPYk_yVjpqJ2ycv9r8Q3-9" value="&lt;b&gt;Group: vnet&lt;/b&gt;" style="text;html=1;strokeColor=none;fillColor=none;align=center;verticalAlign=middle;whiteSpace=wrap;rounded=0;" vertex="1" parent="bPYk_yVjpqJ2ycv9r8Q3-7">
          <mxGeometry width="110" height="30" as="geometry" />
        </mxCell>
        <mxCell id="bPYk_yVjpqJ2ycv9r8Q3-10" value="" style="rounded=0;whiteSpace=wrap;html=1;dashed=1;" vertex="1" parent="1">
          <mxGeometry x="520" y="210" width="340" height="300" as="geometry" />
        </mxCell>
        <mxCell id="bPYk_yVjpqJ2ycv9r8Q3-11" value="&lt;b&gt;Group: capture&lt;/b&gt;" style="text;html=1;strokeColor=none;fillColor=none;align=center;verticalAlign=middle;whiteSpace=wrap;rounded=0;" vertex="1" parent="1">
          <mxGeometry x="520" y="210" width="110" height="30" as="geometry" />
        </mxCell>
        <mxCell id="bPYk_yVjpqJ2ycv9r8Q3-12" value="" style="rounded=0;whiteSpace=wrap;html=1;dashed=1;align=left;" vertex="1" parent="1">
          <mxGeometry x="90" y="640" width="340" height="300" as="geometry" />
        </mxCell>
        <mxCell id="bPYk_yVjpqJ2ycv9r8Q3-13" value="match IPinIP pkts / put to queue 0" style="rounded=1;whiteSpace=wrap;html=1;" vertex="1" parent="1">
          <mxGeometry x="110" y="670" width="290" height="40" as="geometry" />
        </mxCell>
        <mxCell id="bPYk_yVjpqJ2ycv9r8Q3-14" value="match flow 1 / encap and/or &amp;nbsp;send to another port" style="rounded=1;whiteSpace=wrap;html=1;" vertex="1" parent="1">
          <mxGeometry x="115" y="730" width="290" height="40" as="geometry" />
        </mxCell>
        <mxCell id="bPYk_yVjpqJ2ycv9r8Q3-15" value="match flow 2 / encap and/or &amp;nbsp;send to another port" style="rounded=1;whiteSpace=wrap;html=1;" vertex="1" parent="1">
          <mxGeometry x="115" y="800" width="290" height="40" as="geometry" />
        </mxCell>
        <mxCell id="bPYk_yVjpqJ2ycv9r8Q3-16" value="&lt;b&gt;Group: default&lt;/b&gt;" style="text;html=1;strokeColor=none;fillColor=none;align=center;verticalAlign=middle;whiteSpace=wrap;rounded=0;" vertex="1" parent="1">
          <mxGeometry x="90" y="640" width="110" height="30" as="geometry" />
        </mxCell>
        <mxCell id="bPYk_yVjpqJ2ycv9r8Q3-22" value="" style="rounded=0;whiteSpace=wrap;html=1;dashed=1;" vertex="1" parent="1">
          <mxGeometry x="520" y="640" width="340" height="300" as="geometry" />
        </mxCell>
        <mxCell id="bPYk_yVjpqJ2ycv9r8Q3-23" value="&lt;b&gt;Group: capture&lt;/b&gt;" style="text;html=1;strokeColor=none;fillColor=none;align=center;verticalAlign=middle;whiteSpace=wrap;rounded=0;" vertex="1" parent="1">
          <mxGeometry x="520" y="640" width="110" height="30" as="geometry" />
        </mxCell>
        <mxCell id="bPYk_yVjpqJ2ycv9r8Q3-24" value="match all eth pkts / duplicate pkts / encap duplicated pkts and send out via port 0 / jump to &lt;b&gt;vnet&lt;/b&gt; group" style="rounded=1;whiteSpace=wrap;html=1;" vertex="1" parent="1">
          <mxGeometry x="545" y="680" width="290" height="40" as="geometry" />
        </mxCell>
        <mxCell id="bPYk_yVjpqJ2ycv9r8Q3-25" value="" style="rounded=0;whiteSpace=wrap;html=1;dashed=1;align=left;" vertex="1" parent="1">
          <mxGeometry x="80" y="1090" width="340" height="300" as="geometry" />
        </mxCell>
        <mxCell id="bPYk_yVjpqJ2ycv9r8Q3-29" value="&lt;b&gt;Group: default&lt;/b&gt;" style="text;html=1;strokeColor=none;fillColor=none;align=center;verticalAlign=middle;whiteSpace=wrap;rounded=0;" vertex="1" parent="1">
          <mxGeometry x="90" y="1090" width="110" height="30" as="geometry" />
        </mxCell>
        <mxCell id="bPYk_yVjpqJ2ycv9r8Q3-30" value="" style="group" vertex="1" connectable="0" parent="1">
          <mxGeometry x="970" y="1080" width="340" height="300" as="geometry" />
        </mxCell>
        <mxCell id="bPYk_yVjpqJ2ycv9r8Q3-31" value="" style="group" vertex="1" connectable="0" parent="bPYk_yVjpqJ2ycv9r8Q3-30">
          <mxGeometry y="10" width="340" height="300" as="geometry" />
        </mxCell>
        <mxCell id="bPYk_yVjpqJ2ycv9r8Q3-32" value="" style="rounded=0;whiteSpace=wrap;html=1;dashed=1;" vertex="1" parent="bPYk_yVjpqJ2ycv9r8Q3-31">
          <mxGeometry width="340" height="300" as="geometry" />
        </mxCell>
        <mxCell id="bPYk_yVjpqJ2ycv9r8Q3-33" value="&lt;b&gt;Group: vnet&lt;/b&gt;" style="text;html=1;strokeColor=none;fillColor=none;align=center;verticalAlign=middle;whiteSpace=wrap;rounded=0;" vertex="1" parent="bPYk_yVjpqJ2ycv9r8Q3-31">
          <mxGeometry width="110" height="30" as="geometry" />
        </mxCell>
        <mxCell id="bPYk_yVjpqJ2ycv9r8Q3-34" value="match flow 3 / encap and/or &amp;nbsp;send to another port" style="rounded=1;whiteSpace=wrap;html=1;" vertex="1" parent="bPYk_yVjpqJ2ycv9r8Q3-31">
          <mxGeometry x="20" y="40" width="290" height="40" as="geometry" />
        </mxCell>
        <mxCell id="1zWNMgFNh54FDOiei4-4-13" value="" style="sketch=0;pointerEvents=1;shadow=0;dashed=0;html=1;strokeColor=none;fillColor=#505050;labelPosition=center;verticalLabelPosition=bottom;verticalAlign=top;outlineConnect=0;align=center;shape=mxgraph.office.concepts.clock;" vertex="1" parent="bPYk_yVjpqJ2ycv9r8Q3-31">
          <mxGeometry x="-5" y="47.5" width="25" height="25" as="geometry" />
        </mxCell>
        <mxCell id="bPYk_yVjpqJ2ycv9r8Q3-35" value="" style="rounded=0;whiteSpace=wrap;html=1;dashed=1;" vertex="1" parent="1">
          <mxGeometry x="520" y="1090" width="340" height="300" as="geometry" />
        </mxCell>
        <mxCell id="bPYk_yVjpqJ2ycv9r8Q3-36" value="&lt;b&gt;Group: capture&lt;/b&gt;" style="text;html=1;strokeColor=none;fillColor=none;align=center;verticalAlign=middle;whiteSpace=wrap;rounded=0;" vertex="1" parent="1">
          <mxGeometry x="520" y="1090" width="110" height="30" as="geometry" />
        </mxCell>
        <mxCell id="bPYk_yVjpqJ2ycv9r8Q3-37" value="&lt;b&gt;PF0 RX capture&lt;/b&gt;" style="text;html=1;strokeColor=none;fillColor=none;align=center;verticalAlign=middle;whiteSpace=wrap;rounded=0;" vertex="1" parent="1">
          <mxGeometry x="70" y="90" width="110" height="30" as="geometry" />
        </mxCell>
        <mxCell id="bPYk_yVjpqJ2ycv9r8Q3-38" value="&lt;b&gt;PF: right after init, capturing for this PF is not started , 2 flows arrived&lt;/b&gt;" style="text;html=1;strokeColor=none;fillColor=none;align=left;verticalAlign=middle;whiteSpace=wrap;rounded=0;" vertex="1" parent="1">
          <mxGeometry x="80" y="150" width="310" height="30" as="geometry" />
        </mxCell>
        <mxCell id="bPYk_yVjpqJ2ycv9r8Q3-39" value="&lt;b&gt;PF: capturing for this PF is started, 3rd flow arrived&amp;nbsp;&lt;/b&gt;" style="text;html=1;strokeColor=none;fillColor=none;align=left;verticalAlign=middle;whiteSpace=wrap;rounded=0;" vertex="1" parent="1">
          <mxGeometry x="90" y="590" width="310" height="30" as="geometry" />
        </mxCell>
        <mxCell id="bPYk_yVjpqJ2ycv9r8Q3-40" value="&lt;b&gt;PF: capturing for this PF is stopped&amp;nbsp;&lt;/b&gt;" style="text;html=1;strokeColor=none;fillColor=none;align=left;verticalAlign=middle;whiteSpace=wrap;rounded=0;" vertex="1" parent="1">
          <mxGeometry x="90" y="1040" width="310" height="30" as="geometry" />
        </mxCell>
        <mxCell id="bPYk_yVjpqJ2ycv9r8Q3-41" value="match flow 3 / &amp;nbsp;jump to &lt;b&gt;capture&lt;/b&gt; group" style="rounded=1;whiteSpace=wrap;html=1;" vertex="1" parent="1">
          <mxGeometry x="115" y="870" width="290" height="40" as="geometry" />
        </mxCell>
        <mxCell id="bPYk_yVjpqJ2ycv9r8Q3-42" value="match all eth pkts / jump to &lt;b&gt;vnet&lt;/b&gt; group" style="rounded=1;whiteSpace=wrap;html=1;" vertex="1" parent="1">
          <mxGeometry x="537" y="1130" width="290" height="40" as="geometry" />
        </mxCell>
        <mxCell id="bPYk_yVjpqJ2ycv9r8Q3-43" value="match IPinIP pkts / put to queue 0" style="rounded=1;whiteSpace=wrap;html=1;" vertex="1" parent="1">
          <mxGeometry x="110" y="1120" width="285" height="40" as="geometry" />
        </mxCell>
        <mxCell id="bPYk_yVjpqJ2ycv9r8Q3-44" value="match flow 1 / encap and/or &amp;nbsp;send to another port" style="rounded=1;whiteSpace=wrap;html=1;" vertex="1" parent="1">
          <mxGeometry x="110" y="1180" width="290" height="40" as="geometry" />
        </mxCell>
        <mxCell id="bPYk_yVjpqJ2ycv9r8Q3-45" value="match flow 2 / encap and/or &amp;nbsp;send to another port" style="rounded=1;whiteSpace=wrap;html=1;" vertex="1" parent="1">
          <mxGeometry x="110" y="1250" width="290" height="40" as="geometry" />
        </mxCell>
        <mxCell id="bPYk_yVjpqJ2ycv9r8Q3-46" value="match flow 3 / &amp;nbsp;jump to &lt;b&gt;capture&lt;/b&gt; group" style="rounded=1;whiteSpace=wrap;html=1;" vertex="1" parent="1">
          <mxGeometry x="110" y="1320" width="290" height="40" as="geometry" />
        </mxCell>
        <mxCell id="1zWNMgFNh54FDOiei4-4-3" value="" style="sketch=0;pointerEvents=1;shadow=0;dashed=0;html=1;strokeColor=none;fillColor=#505050;labelPosition=center;verticalLabelPosition=bottom;verticalAlign=top;outlineConnect=0;align=center;shape=mxgraph.office.concepts.clock;" vertex="1" parent="1">
          <mxGeometry x="90" y="307.5" width="25" height="25" as="geometry" />
        </mxCell>
        <mxCell id="1zWNMgFNh54FDOiei4-4-4" value="" style="sketch=0;pointerEvents=1;shadow=0;dashed=0;html=1;strokeColor=none;fillColor=#505050;labelPosition=center;verticalLabelPosition=bottom;verticalAlign=top;outlineConnect=0;align=center;shape=mxgraph.office.concepts.clock;" vertex="1" parent="1">
          <mxGeometry x="90" y="377.5" width="25" height="25" as="geometry" />
        </mxCell>
        <mxCell id="1zWNMgFNh54FDOiei4-4-5" value="" style="sketch=0;pointerEvents=1;shadow=0;dashed=0;html=1;strokeColor=none;fillColor=#505050;labelPosition=center;verticalLabelPosition=bottom;verticalAlign=top;outlineConnect=0;align=center;shape=mxgraph.office.concepts.clock;" vertex="1" parent="1">
          <mxGeometry x="90" y="737.5" width="25" height="25" as="geometry" />
        </mxCell>
        <mxCell id="1zWNMgFNh54FDOiei4-4-6" value="" style="sketch=0;pointerEvents=1;shadow=0;dashed=0;html=1;strokeColor=none;fillColor=#505050;labelPosition=center;verticalLabelPosition=bottom;verticalAlign=top;outlineConnect=0;align=center;shape=mxgraph.office.concepts.clock;" vertex="1" parent="1">
          <mxGeometry x="90" y="807.5" width="25" height="25" as="geometry" />
        </mxCell>
        <mxCell id="1zWNMgFNh54FDOiei4-4-7" value="" style="sketch=0;pointerEvents=1;shadow=0;dashed=0;html=1;strokeColor=none;fillColor=#505050;labelPosition=center;verticalLabelPosition=bottom;verticalAlign=top;outlineConnect=0;align=center;shape=mxgraph.office.concepts.clock;" vertex="1" parent="1">
          <mxGeometry x="90" y="877.5" width="25" height="25" as="geometry" />
        </mxCell>
        <mxCell id="bPYk_yVjpqJ2ycv9r8Q3-18" value="" style="group" vertex="1" connectable="0" parent="1">
          <mxGeometry x="965" y="640" width="340" height="300" as="geometry" />
        </mxCell>
        <mxCell id="bPYk_yVjpqJ2ycv9r8Q3-19" value="" style="rounded=0;whiteSpace=wrap;html=1;dashed=1;" vertex="1" parent="bPYk_yVjpqJ2ycv9r8Q3-18">
          <mxGeometry width="340" height="300" as="geometry" />
        </mxCell>
        <mxCell id="bPYk_yVjpqJ2ycv9r8Q3-20" value="&lt;b&gt;Group: vnet&lt;/b&gt;" style="text;html=1;strokeColor=none;fillColor=none;align=center;verticalAlign=middle;whiteSpace=wrap;rounded=0;" vertex="1" parent="bPYk_yVjpqJ2ycv9r8Q3-18">
          <mxGeometry width="110" height="30" as="geometry" />
        </mxCell>
        <mxCell id="bPYk_yVjpqJ2ycv9r8Q3-21" value="match flow 3 / encap and/or &amp;nbsp;send to another port" style="rounded=1;whiteSpace=wrap;html=1;" vertex="1" parent="bPYk_yVjpqJ2ycv9r8Q3-18">
          <mxGeometry x="20" y="40" width="290" height="40" as="geometry" />
        </mxCell>
        <mxCell id="1zWNMgFNh54FDOiei4-4-8" value="" style="sketch=0;pointerEvents=1;shadow=0;dashed=0;html=1;strokeColor=none;fillColor=#505050;labelPosition=center;verticalLabelPosition=bottom;verticalAlign=top;outlineConnect=0;align=center;shape=mxgraph.office.concepts.clock;" vertex="1" parent="bPYk_yVjpqJ2ycv9r8Q3-18">
          <mxGeometry x="-5" y="47.5" width="25" height="25" as="geometry" />
        </mxCell>
        <mxCell id="1zWNMgFNh54FDOiei4-4-10" value="" style="sketch=0;pointerEvents=1;shadow=0;dashed=0;html=1;strokeColor=none;fillColor=#505050;labelPosition=center;verticalLabelPosition=bottom;verticalAlign=top;outlineConnect=0;align=center;shape=mxgraph.office.concepts.clock;" vertex="1" parent="1">
          <mxGeometry x="85" y="1187.5" width="25" height="25" as="geometry" />
        </mxCell>
        <mxCell id="1zWNMgFNh54FDOiei4-4-11" value="" style="sketch=0;pointerEvents=1;shadow=0;dashed=0;html=1;strokeColor=none;fillColor=#505050;labelPosition=center;verticalLabelPosition=bottom;verticalAlign=top;outlineConnect=0;align=center;shape=mxgraph.office.concepts.clock;" vertex="1" parent="1">
          <mxGeometry x="85" y="1257.5" width="25" height="25" as="geometry" />
        </mxCell>
        <mxCell id="1zWNMgFNh54FDOiei4-4-12" value="" style="sketch=0;pointerEvents=1;shadow=0;dashed=0;html=1;strokeColor=none;fillColor=#505050;labelPosition=center;verticalLabelPosition=bottom;verticalAlign=top;outlineConnect=0;align=center;shape=mxgraph.office.concepts.clock;" vertex="1" parent="1">
          <mxGeometry x="85" y="1327.5" width="25" height="25" as="geometry" />
        </mxCell>
      </root>
    </mxGraphModel>
  </diagram>
</mxfile>
